<svg version="1.1" xmlns="http://www.w3.org/2000/svg" xmlns:xlink="http://www.w3.org/1999/xlink" text-rendering="optimizeSpeed" class="wheelSVG" viewBox="0 0 1024 768"><defs><filter id="shadow" x="-100%" y="-100%" width="550%" height="550%"><feOffset in="SourceAlpha" dx="0" dy="0" result="offsetOut"></feOffset> <feGaussianBlur stdDeviation="9" in="offsetOut" result="drop"></feGaussianBlur> <feColorMatrix in="drop" result="color-out" type="matrix" values="0 0 0 0   0
							0 0 0 0   0
							0 0 0 0   0
							0 0 0 .3 0"></feColorMatrix> <feBlend in="SourceGraphic" in2="color-out" mode="normal"></feBlend></filter></defs> <g class="mainContainer" data-svg-origin="512 384" transform="matrix(0,-1,1,0,127.99999999999994,896)" style="transform-origin: 0px 0px 0px;"><g class="wheel" data-svg-origin="512 384" transform="matrix(1,0,0,1,0,0)" style="transform-origin: 0px 0px 0px;"><g><path data-svg-origin="512 384" transform="matrix(1,0,0,1,0,0)" d="M512,384  L859.2401454600672,340.1333682524935  A350,350 0 0,1 859.2401454600672,427.8666317475065z" fill="#95A5A6" stroke="0" style="transform-origin: 0px 0px 0px;"></path></g><g><path data-svg-origin="512 384" transform="matrix(0.96858,0.24868,-0.24868,0.96858,111.58233817344512,-115.26515610180002)" d="M512,384  L859.2401454600672,340.1333682524935  A350,350 0 0,1 859.2401454600672,427.8666317475065z" fill="#ffc107" stroke="0" style="transform-origin: 0px 0px 0px;"></path></g><g><path data-svg-origin="512 384" transform="matrix(0.8763,0.48175,-0.48175,0.8763,248.32439067260054,-199.15964627692188)" d="M512,384  L859.2401454600672,340.1333682524935  A350,350 0 0,1 859.2401454600672,427.8666317475065z" fill="#00AEEF" stroke="0" style="transform-origin: 0px 0px 0px;"></path></g><g><path data-svg-origin="512 384" transform="matrix(0.72896,0.68454,-0.68454,0.72896,401.63415143685376,-246.41207116531064)" d="M512,384  L859.2401454600672,340.1333682524935  A350,350 0 0,1 859.2401454600672,427.8666317475065z" fill="#ffc107" stroke="0" style="transform-origin: 0px 0px 0px;"></path></g><g><path data-svg-origin="512 384" transform="matrix(0.53582,0.84432,-0.84432,0.53582,561.8786043635275,-254.0533871289664)" d="M512,384  L859.2401454600672,340.1333682524935  A350,350 0 0,1 859.2401454600672,427.8666317475065z" fill="#39B54A" stroke="0" style="transform-origin: 0px 0px 0px;"></path></g><g><path data-svg-origin="512 384" transform="matrix(0.30901,0.95105,-0.95105,0.30901,718.9890011373659,-221.60346218309837)" d="M512,384  L859.2401454600672,340.1333682524935  A350,350 0 0,1 859.2401454600672,427.8666317475065z" fill="#ffc107" stroke="0" style="transform-origin: 0px 0px 0px;"></path></g><g><path data-svg-origin="512 384" transform="matrix(0.06279,0.99802,-0.99802,0.06279,863.0935177174479,-151.1012444545313)" d="M512,384  L859.2401454600672,340.1333682524935  A350,350 0 0,1 859.2401454600672,427.8666317475065z" fill="#95A5A6" stroke="0" style="transform-origin: 0px 0px 0px;"></path></g><g><path data-svg-origin="512 384" transform="matrix(-0.18738,0.98228,-0.98228,-0.18738,985.1375373477074,-46.97664757217035)" d="M512,384  L859.2401454600672,340.1333682524935  A350,350 0 0,1 859.2401454600672,427.8666317475065z" fill="#ffc107" stroke="0" style="transform-origin: 0px 0px 0px;"></path></g><g><path data-svg-origin="512 384" transform="matrix(-0.42577,0.90482,-0.90482,-0.42577,1077.4525854282688,84.22779709838596)" d="M512,384  L859.2401454600672,340.1333682524935  A350,350 0 0,1 859.2401454600672,427.8666317475065z" fill="#00AEEF" stroke="0" style="transform-origin: 0px 0px 0px;"></path></g><g><path data-svg-origin="512 384" transform="matrix(-0.63742,0.77051,-0.77051,-0.63742,1134.2381679772323,234.26803176229276)" d="M512,384  L859.2401454600672,340.1333682524935  A350,350 0 0,1 859.2401454600672,427.8666317475065z" fill="#ffc107" stroke="0" style="transform-origin: 0px 0px 0px;"></path></g><g><path data-svg-origin="512 384" transform="matrix(-0.80901,0.58778,-0.58778,-0.80901,1151.9262380002829,393.71647666623346)" d="M512,384  L859.2401454600672,340.1333682524935  A350,350 0 0,1 859.2401454600672,427.8666317475065z" fill="#7E57C2" stroke="0" style="transform-origin: 0px 0px 0px;"></path></g><g><path data-svg-origin="512 384" transform="matrix(-0.92977,0.36812,-0.36812,-0.92977,1129.405389005701,552.5543996065336)" d="M512,384  L859.2401454600672,340.1333682524935  A350,350 0 0,1 859.2401454600672,427.8666317475065z" fill="#ffc107" stroke="0" style="transform-origin: 0px 0px 0px;"></path></g><g><path data-svg-origin="512 384" transform="matrix(-0.99211,0.12533,-0.12533,-0.99211,1068.0906887617055,700.8014297198358)" d="M512,384  L859.2401454600672,340.1333682524935  A350,350 0 0,1 859.2401454600672,427.8666317475065z" fill="#39B54A" stroke="0" style="transform-origin: 0px 0px 0px;"></path></g><g><path data-svg-origin="512 384" transform="matrix(-0.99211,-0.12533,0.12533,-0.99211,971.8347653843198,829.1426608896833)" d="M512,384  L859.2401454600672,340.1333682524935  A350,350 0 0,1 859.2401454600672,427.8666317475065z" fill="#ffc107" stroke="0" style="transform-origin: 0px 0px 0px;"></path></g><g><path data-svg-origin="512 384" transform="matrix(-0.92977,-0.36812,0.36812,-0.92977,846.6857325438684,929.5139415556437)" d="M512,384  L859.2401454600672,340.1333682524935  A350,350 0 0,1 859.2401454600672,427.8666317475065z" fill="#95A5A6" stroke="0" style="transform-origin: 0px 0px 0px;"></path></g><g><path data-svg-origin="512 384" transform="matrix(-0.80901,-0.58778,0.58778,-0.80901,700.5071642396634,995.6085750137261)" d="M512,384  L859.2401454600672,340.1333682524935  A350,350 0 0,1 859.2401454600672,427.8666317475065z" fill="#ffc107" stroke="0" style="transform-origin: 0px 0px 0px;"></path></g><g><path data-svg-origin="512 384" transform="matrix(-0.63742,-0.77051,0.77051,-0.63742,542.4839975254259,1023.2735923647009)" d="M512,384  L859.2401454600672,340.1333682524935  A350,350 0 0,1 859.2401454600672,427.8666317475065z" fill="#00AEEF" stroke="0" style="transform-origin: 0px 0px 0px;"></path></g><g><path data-svg-origin="512 384" transform="matrix(-0.42577,-0.90482,0.90482,-0.42577,382.5454091343654,1010.7706988235898)" d="M512,384  L859.2401454600672,340.1333682524935  A350,350 0 0,1 859.2401454600672,427.8666317475065z" fill="#ffc107" stroke="0" style="transform-origin: 0px 0px 0px;"></path></g><g><path data-svg-origin="512 384" transform="matrix(-0.18738,-0.98228,0.98228,-0.18738,230.74092878807454,958.8854971740069)" d="M512,384  L859.2401454600672,340.1333682524935  A350,350 0 0,1 859.2401454600672,427.8666317475065z" fill="#95A5A6" stroke="0" style="transform-origin: 0px 0px 0px;"></path></g><g><path data-svg-origin="512 384" transform="matrix(0.06279,-0.99802,0.99802,0.06279,96.60899028453514,870.8781254560186)" d="M512,384  L859.2401454600672,340.1333682524935  A350,350 0 0,1 859.2401454600672,427.8666317475065z" fill="#ffc107" stroke="0" style="transform-origin: 0px 0px 0px;"></path></g><g><path data-svg-origin="512 384" transform="matrix(0.30901,-0.95105,0.95105,0.30901,-11.42240337731198,752.278410503139)" d="M512,384  L859.2401454600672,340.1333682524935  A350,350 0 0,1 859.2401454600672,427.8666317475065z" fill="#00AEEF" stroke="0" style="transform-origin: 0px 0px 0px;"></path></g><g><path data-svg-origin="512 384" transform="matrix(0.53582,-0.84432,0.84432,0.53582,-86.5652424220201,610.5384085850969)" d="M512,384  L859.2401454600672,340.1333682524935  A350,350 0 0,1 859.2401454600672,427.8666317475065z" fill="#ED1A25" stroke="0" style="transform-origin: 0px 0px 0px;"></path></g><g><path data-svg-origin="512 384" transform="matrix(0.72896,-0.68454,0.68454,0.72896,-124.09802591637913,454.5641653056662)" d="M512,384  L859.2401454600672,340.1333682524935  A350,350 0 0,1 859.2401454600672,427.8666317475065z" fill="#ffc107" stroke="0" style="transform-origin: 0px 0px 0px;"></path></g><g><path data-svg-origin="512 384" transform="matrix(0.8763,-0.48175,0.48175,0.8763,-121.66243103751685,294.1561160032346)" d="M512,384  L859.2401454600672,340.1333682524935  A350,350 0 0,1 859.2401454600672,427.8666317475065z" fill="#7E57C2" stroke="0" style="transform-origin: 0px 0px 0px;"></path></g><g><path data-svg-origin="512 384" transform="matrix(0.96858,-0.24868,0.24868,0.96858,-79.41149516916335,139.39328835501112)" d="M512,384  L859.2401454600672,340.1333682524935  A350,350 0 0,1 859.2401454600672,427.8666317475065z" fill="#ffc107" stroke="0" style="transform-origin: 0px 0px 0px;"></path></g><line x1="512" x2="859.2401454600672" y1="384" y2="427.8666317475065" stroke="#603814" stroke-width="1" data-svg-origin="512 384" transform="matrix(1,0,0,1,0,0)" style="transform-origin: 0px 0px 0px;"></line><line x1="512" x2="859.2401454600672" y1="384" y2="427.8666317475065" stroke="#603814" stroke-width="1" data-svg-origin="512 384" transform="matrix(0.96858,0.24868,-0.24868,0.96858,111.58233817344512,-115.26515610180002)" style="transform-origin: 0px 0px 0px;"></line><line x1="512" x2="859.2401454600672" y1="384" y2="427.8666317475065" stroke="#603814" stroke-width="1" data-svg-origin="512 384" transform="matrix(0.8763,0.48175,-0.48175,0.8763,248.32439067260054,-199.15964627692188)" style="transform-origin: 0px 0px 0px;"></line><line x1="512" x2="859.2401454600672" y1="384" y2="427.8666317475065" stroke="#603814" stroke-width="1" data-svg-origin="512 384" transform="matrix(0.72896,0.68454,-0.68454,0.72896,401.63415143685376,-246.41207116531064)" style="transform-origin: 0px 0px 0px;"></line><line x1="512" x2="859.2401454600672" y1="384" y2="427.8666317475065" stroke="#603814" stroke-width="1" data-svg-origin="512 384" transform="matrix(0.53582,0.84432,-0.84432,0.53582,561.8786043635275,-254.0533871289664)" style="transform-origin: 0px 0px 0px;"></line><line x1="512" x2="859.2401454600672" y1="384" y2="427.8666317475065" stroke="#603814" stroke-width="1" data-svg-origin="512 384" transform="matrix(0.30901,0.95105,-0.95105,0.30901,718.9890011373659,-221.60346218309837)" style="transform-origin: 0px 0px 0px;"></line><line x1="512" x2="859.2401454600672" y1="384" y2="427.8666317475065" stroke="#603814" stroke-width="1" data-svg-origin="512 384" transform="matrix(0.06279,0.99802,-0.99802,0.06279,863.0935177174479,-151.1012444545313)" style="transform-origin: 0px 0px 0px;"></line><line x1="512" x2="859.2401454600672" y1="384" y2="427.8666317475065" stroke="#603814" stroke-width="1" data-svg-origin="512 384" transform="matrix(-0.18738,0.98228,-0.98228,-0.18738,985.1375373477074,-46.97664757217035)" style="transform-origin: 0px 0px 0px;"></line><line x1="512" x2="859.2401454600672" y1="384" y2="427.8666317475065" stroke="#603814" stroke-width="1" data-svg-origin="512 384" transform="matrix(-0.42577,0.90482,-0.90482,-0.42577,1077.4525854282688,84.22779709838596)" style="transform-origin: 0px 0px 0px;"></line><line x1="512" x2="859.2401454600672" y1="384" y2="427.8666317475065" stroke="#603814" stroke-width="1" data-svg-origin="512 384" transform="matrix(-0.63742,0.77051,-0.77051,-0.63742,1134.2381679772323,234.26803176229276)" style="transform-origin: 0px 0px 0px;"></line><line x1="512" x2="859.2401454600672" y1="384" y2="427.8666317475065" stroke="#603814" stroke-width="1" data-svg-origin="512 384" transform="matrix(-0.80901,0.58778,-0.58778,-0.80901,1151.9262380002829,393.71647666623346)" style="transform-origin: 0px 0px 0px;"></line><line x1="512" x2="859.2401454600672" y1="384" y2="427.8666317475065" stroke="#603814" stroke-width="1" data-svg-origin="512 384" transform="matrix(-0.92977,0.36812,-0.36812,-0.92977,1129.405389005701,552.5543996065336)" style="transform-origin: 0px 0px 0px;"></line><line x1="512" x2="859.2401454600672" y1="384" y2="427.8666317475065" stroke="#603814" stroke-width="1" data-svg-origin="512 384" transform="matrix(-0.99211,0.12533,-0.12533,-0.99211,1068.0906887617055,700.8014297198358)" style="transform-origin: 0px 0px 0px;"></line><line x1="512" x2="859.2401454600672" y1="384" y2="427.8666317475065" stroke="#603814" stroke-width="1" data-svg-origin="512 384" transform="matrix(-0.99211,-0.12533,0.12533,-0.99211,971.8347653843198,829.1426608896833)" style="transform-origin: 0px 0px 0px;"></line><line x1="512" x2="859.2401454600672" y1="384" y2="427.8666317475065" stroke="#603814" stroke-width="1" data-svg-origin="512 384" transform="matrix(-0.92977,-0.36812,0.36812,-0.92977,846.6857325438684,929.5139415556437)" style="transform-origin: 0px 0px 0px;"></line><line x1="512" x2="859.2401454600672" y1="384" y2="427.8666317475065" stroke="#603814" stroke-width="1" data-svg-origin="512 384" transform="matrix(-0.80901,-0.58778,0.58778,-0.80901,700.5071642396634,995.6085750137261)" style="transform-origin: 0px 0px 0px;"></line><line x1="512" x2="859.2401454600672" y1="384" y2="427.8666317475065" stroke="#603814" stroke-width="1" data-svg-origin="512 384" transform="matrix(-0.63742,-0.77051,0.77051,-0.63742,542.4839975254259,1023.2735923647009)" style="transform-origin: 0px 0px 0px;"></line><line x1="512" x2="859.2401454600672" y1="384" y2="427.8666317475065" stroke="#603814" stroke-width="1" data-svg-origin="512 384" transform="matrix(-0.42577,-0.90482,0.90482,-0.42577,382.5454091343654,1010.7706988235898)" style="transform-origin: 0px 0px 0px;"></line><line x1="512" x2="859.2401454600672" y1="384" y2="427.8666317475065" stroke="#603814" stroke-width="1" data-svg-origin="512 384" transform="matrix(-0.18738,-0.98228,0.98228,-0.18738,230.74092878807454,958.8854971740069)" style="transform-origin: 0px 0px 0px;"></line><line x1="512" x2="859.2401454600672" y1="384" y2="427.8666317475065" stroke="#603814" stroke-width="1" data-svg-origin="512 384" transform="matrix(0.06279,-0.99802,0.99802,0.06279,96.60899028453514,870.8781254560186)" style="transform-origin: 0px 0px 0px;"></line><line x1="512" x2="859.2401454600672" y1="384" y2="427.8666317475065" stroke="#603814" stroke-width="1" data-svg-origin="512 384" transform="matrix(0.30901,-0.95105,0.95105,0.30901,-11.42240337731198,752.278410503139)" style="transform-origin: 0px 0px 0px;"></line><line x1="512" x2="859.2401454600672" y1="384" y2="427.8666317475065" stroke="#603814" stroke-width="1" data-svg-origin="512 384" transform="matrix(0.53582,-0.84432,0.84432,0.53582,-86.5652424220201,610.5384085850969)" style="transform-origin: 0px 0px 0px;"></line><line x1="512" x2="859.2401454600672" y1="384" y2="427.8666317475065" stroke="#603814" stroke-width="1" data-svg-origin="512 384" transform="matrix(0.72896,-0.68454,0.68454,0.72896,-124.09802591637913,454.5641653056662)" style="transform-origin: 0px 0px 0px;"></line><line x1="512" x2="859.2401454600672" y1="384" y2="427.8666317475065" stroke="#603814" stroke-width="1" data-svg-origin="512 384" transform="matrix(0.8763,-0.48175,0.48175,0.8763,-121.66243103751685,294.1561160032346)" style="transform-origin: 0px 0px 0px;"></line><line x1="512" x2="859.2401454600672" y1="384" y2="427.8666317475065" stroke="#603814" stroke-width="1" data-svg-origin="512 384" transform="matrix(0.96858,-0.24868,0.24868,0.96858,-79.41149516916335,139.39328835501112)" style="transform-origin: 0px 0px 0px;"></line></g></g> <g class="centerCircle"><circle fill="#603814" stroke="#F1DC15" stroke-width="18" cx="512" cy="384" r="180"></circle></g> <g class="wheelOutline"><g><circle fill="transparent" stroke="#603814" stroke-width="18" cx="512" cy="384" r="350"></circle></g></g>  <g class="valueContainer" data-svg-origin="512 384" transform="matrix(1,0,0,1,0,0)" style="transform-origin: 0px 0px 0px;"><g data-svg-origin="512 384" transform="matrix(1,0,0,1,0,0)" style="transform-origin: 0px 0px 0px;"><text class="wheelText" fill="#EDEDED" x="512" y="114" style="font-size: 2.3em;"><tspan dy="0" x="512" text-anchor="middle">SPIN</tspan></text></g><g data-svg-origin="512 384" transform="matrix(0.96858,0.24868,-0.24868,0.96858,111.58233817344512,-115.26515610180002)" style="transform-origin: 0px 0px 0px;"><text class="wheelText" fill="#EDEDED" x="512" y="114" style="font-size: 2.3em;"><tspan dy="0" x="512" text-anchor="middle">X2</tspan></text></g><g data-svg-origin="512 384" transform="matrix(0.8763,0.48175,-0.48175,0.8763,248.32439067260054,-199.15964627692188)" style="transform-origin: 0px 0px 0px;"><text class="wheelText" fill="#EDEDED" x="512" y="114" style="font-size: 2.3em;"><tspan dy="0" x="512" text-anchor="middle">X3</tspan></text></g><g data-svg-origin="512 384" transform="matrix(0.72896,0.68454,-0.68454,0.72896,401.63415143685376,-246.41207116531064)" style="transform-origin: 0px 0px 0px;"><text class="wheelText" fill="#EDEDED" x="512" y="114" style="font-size: 2.3em;"><tspan dy="0" x="512" text-anchor="middle">X2</tspan></text></g><g data-svg-origin="512 384" transform="matrix(0.53582,0.84432,-0.84432,0.53582,561.8786043635275,-254.0533871289664)" style="transform-origin: 0px 0px 0px;"><text class="wheelText" fill="#EDEDED" x="512" y="114" style="font-size: 2.3em;"><tspan dy="0" x="512" text-anchor="middle">X5</tspan></text></g><g data-svg-origin="512 384" transform="matrix(0.30901,0.95105,-0.95105,0.30901,718.9890011373659,-221.60346218309837)" style="transform-origin: 0px 0px 0px;"><text class="wheelText" fill="#EDEDED" x="512" y="114" style="font-size: 2.3em;"><tspan dy="0" x="512" text-anchor="middle">X2</tspan></text></g><g data-svg-origin="512 384" transform="matrix(0.06279,0.99802,-0.99802,0.06279,863.0935177174479,-151.1012444545313)" style="transform-origin: 0px 0px 0px;"><text class="wheelText" fill="#EDEDED" x="512" y="114" style="font-size: 2.3em;"><tspan dy="0" x="512" text-anchor="middle">SPIN</tspan></text></g><g data-svg-origin="512 384" transform="matrix(-0.18738,0.98228,-0.98228,-0.18738,985.1375373477074,-46.97664757217035)" style="transform-origin: 0px 0px 0px;"><text class="wheelText" fill="#EDEDED" x="512" y="114" style="font-size: 2.3em;"><tspan dy="0" x="512" text-anchor="middle">X2</tspan></text></g><g data-svg-origin="512 384" transform="matrix(-0.42577,0.90482,-0.90482,-0.42577,1077.4525854282688,84.22779709838596)" style="transform-origin: 0px 0px 0px;"><text class="wheelText" fill="#EDEDED" x="512" y="114" style="font-size: 2.3em;"><tspan dy="0" x="512" text-anchor="middle">X3</tspan></text></g><g data-svg-origin="512 384" transform="matrix(-0.63742,0.77051,-0.77051,-0.63742,1134.2381679772323,234.26803176229276)" style="transform-origin: 0px 0px 0px;"><text class="wheelText" fill="#EDEDED" x="512" y="114" style="font-size: 2.3em;"><tspan dy="0" x="512" text-anchor="middle">X2</tspan></text></g><g data-svg-origin="512 384" transform="matrix(-0.80901,0.58778,-0.58778,-0.80901,1151.9262380002829,393.71647666623346)" style="transform-origin: 0px 0px 0px;"><text class="wheelText" fill="#EDEDED" x="512" y="114" style="font-size: 2.3em;"><tspan dy="0" x="512" text-anchor="middle">X10</tspan></text></g><g data-svg-origin="512 384" transform="matrix(-0.92977,0.36812,-0.36812,-0.92977,1129.405389005701,552.5543996065336)" style="transform-origin: 0px 0px 0px;"><text class="wheelText" fill="#EDEDED" x="512" y="114" style="font-size: 2.3em;"><tspan dy="0" x="512" text-anchor="middle">X2</tspan></text></g><g data-svg-origin="512 384" transform="matrix(-0.99211,0.12533,-0.12533,-0.99211,1068.0906887617055,700.8014297198358)" style="transform-origin: 0px 0px 0px;"><text class="wheelText" fill="#EDEDED" x="512" y="114" style="font-size: 2.3em;"><tspan dy="0" x="512" text-anchor="middle">X5</tspan></text></g><g data-svg-origin="512 384" transform="matrix(-0.99211,-0.12533,0.12533,-0.99211,971.8347653843198,829.1426608896833)" style="transform-origin: 0px 0px 0px;"><text class="wheelText" fill="#EDEDED" x="512" y="114" style="font-size: 2.3em;"><tspan dy="0" x="512" text-anchor="middle">X2</tspan></text></g><g data-svg-origin="512 384" transform="matrix(-0.92977,-0.36812,0.36812,-0.92977,846.6857325438684,929.5139415556437)" style="transform-origin: 0px 0px 0px;"><text class="wheelText" fill="#EDEDED" x="512" y="114" style="font-size: 2.3em;"><tspan dy="0" x="512" text-anchor="middle">SPIN</tspan></text></g><g data-svg-origin="512 384" transform="matrix(-0.80901,-0.58778,0.58778,-0.80901,700.5071642396634,995.6085750137261)" style="transform-origin: 0px 0px 0px;"><text class="wheelText" fill="#EDEDED" x="512" y="114" style="font-size: 2.3em;"><tspan dy="0" x="512" text-anchor="middle">X2</tspan></text></g><g data-svg-origin="512 384" transform="matrix(-0.63742,-0.77051,0.77051,-0.63742,542.4839975254259,1023.2735923647009)" style="transform-origin: 0px 0px 0px;"><text class="wheelText" fill="#EDEDED" x="512" y="114" style="font-size: 2.3em;"><tspan dy="0" x="512" text-anchor="middle">X3</tspan></text></g><g data-svg-origin="512 384" transform="matrix(-0.42577,-0.90482,0.90482,-0.42577,382.5454091343654,1010.7706988235898)" style="transform-origin: 0px 0px 0px;"><text class="wheelText" fill="#EDEDED" x="512" y="114" style="font-size: 2.3em;"><tspan dy="0" x="512" text-anchor="middle">X2</tspan></text></g><g data-svg-origin="512 384" transform="matrix(-0.18738,-0.98228,0.98228,-0.18738,230.74092878807454,958.8854971740069)" style="transform-origin: 0px 0px 0px;"><text class="wheelText" fill="#EDEDED" x="512" y="114" style="font-size: 2.3em;"><tspan dy="0" x="512" text-anchor="middle">SPIN</tspan></text></g><g data-svg-origin="512 384" transform="matrix(0.06279,-0.99802,0.99802,0.06279,96.60899028453514,870.8781254560186)" style="transform-origin: 0px 0px 0px;"><text class="wheelText" fill="#EDEDED" x="512" y="114" style="font-size: 2.3em;"><tspan dy="0" x="512" text-anchor="middle">X2</tspan></text></g><g data-svg-origin="512 384" transform="matrix(0.30901,-0.95105,0.95105,0.30901,-11.42240337731198,752.278410503139)" style="transform-origin: 0px 0px 0px;"><text class="wheelText" fill="#EDEDED" x="512" y="114" style="font-size: 2.3em;"><tspan dy="0" x="512" text-anchor="middle">X3</tspan></text></g><g data-svg-origin="512 384" transform="matrix(0.53582,-0.84432,0.84432,0.53582,-86.5652424220201,610.5384085850969)" style="transform-origin: 0px 0px 0px;"><text class="wheelText" fill="#EDEDED" x="512" y="114" style="font-size: 2.3em;"><tspan dy="0" x="512" text-anchor="middle">50K</tspan></text></g><g data-svg-origin="512 384" transform="matrix(0.72896,-0.68454,0.68454,0.72896,-124.09802591637913,454.5641653056662)" style="transform-origin: 0px 0px 0px;"><text class="wheelText" fill="#EDEDED" x="512" y="114" style="font-size: 2.3em;"><tspan dy="0" x="512" text-anchor="middle">X2</tspan></text></g><g data-svg-origin="512 384" transform="matrix(0.8763,-0.48175,0.48175,0.8763,-121.66243103751685,294.1561160032346)" style="transform-origin: 0px 0px 0px;"><text class="wheelText" fill="#EDEDED" x="512" y="114" style="font-size: 2.3em;"><tspan dy="0" x="512" text-anchor="middle">X10</tspan></text></g><g data-svg-origin="512 384" transform="matrix(0.96858,-0.24868,0.24868,0.96858,-79.41149516916335,139.39328835501112)" style="transform-origin: 0px 0px 0px;"><text class="wheelText" fill="#EDEDED" x="512" y="114" style="font-size: 2.3em;"><tspan dy="0" x="512" text-anchor="middle">X2</tspan></text></g></g></svg>
